<svg width="29" height="29" viewBox="0 0 29 29" fill="none" xmlns="http://www.w3.org/2000/svg">
<g clip-path="url(#clip0_10_98)">
<path d="M14.6687 0.829605C22.2718 0.829605 28.4347 6.99329 28.4347 14.5956C28.4347 22.1987 22.2718 28.3614 14.6687 28.3614C7.06558 28.3614 0.902834 22.1986 0.902834 14.5956C0.902834 6.99329 7.06567 0.829605 14.6687 0.829605Z" fill="#3B5998"/>
<path d="M16.3448 10.3065H18.1189V7.68582H16.0334V7.69527C13.5064 7.78477 12.9885 9.20522 12.9429 10.6971H12.9377V12.0058H11.217V14.5722H12.9377V21.4517H15.5309V14.5722H17.6551L18.0655 12.0058H15.5317V11.2151C15.5317 10.7109 15.8672 10.3065 16.3448 10.3065Z" fill="white"/>
</g>
<defs>
<clipPath id="clip0_10_98">
<rect width="27.5318" height="27.5318" fill="white" transform="translate(0.902834 0.829605)"/>
</clipPath>
</defs>
</svg>
