<svg width="24" height="25" viewBox="0 0 24 25" fill="none" xmlns="http://www.w3.org/2000/svg">
<g clip-path="url(#clip0_10_89)">
<path d="M22.6015 10.5703L13.0992 10.5698C12.6796 10.5698 12.3395 10.9099 12.3395 11.3295V14.365C12.3395 14.7846 12.6796 15.1247 13.0991 15.1247H18.4502C17.8643 16.6454 16.7706 17.9189 15.3753 18.7281L17.657 22.6779C21.3172 20.5611 23.4811 16.8469 23.4811 12.6892C23.4811 12.0972 23.4374 11.674 23.3502 11.1975C23.2838 10.8354 22.9695 10.5703 22.6015 10.5703Z" fill="#167EE6"/>
<path d="M11.833 19.6857C9.21426 19.6857 6.92814 18.2549 5.70031 16.1376L1.75061 18.4142C3.76059 21.8978 7.52592 24.2436 11.833 24.2436C13.9459 24.2436 15.9396 23.6747 17.657 22.6833V22.6779L15.3753 18.728C14.3316 19.3334 13.1239 19.6857 11.833 19.6857Z" fill="#12B347"/>
<path d="M17.6568 22.6833V22.6779L15.3751 18.728C14.3314 19.3333 13.1238 19.6857 11.8328 19.6857V24.2436C13.9457 24.2436 15.9395 23.6747 17.6568 22.6833Z" fill="#0F993E"/>
<path d="M4.74266 12.5955C4.74266 11.3047 5.09492 10.0971 5.70012 9.05345L1.75042 6.77689C0.753553 8.48893 0.184708 10.4772 0.184708 12.5955C0.184708 14.7138 0.753553 16.7021 1.75042 18.4141L5.70012 16.1376C5.09492 15.0939 4.74266 13.8863 4.74266 12.5955Z" fill="#FFD500"/>
<path d="M11.833 5.5054C13.5407 5.5054 15.1092 6.11219 16.3344 7.12153C16.6367 7.3705 17.076 7.35253 17.3529 7.07566L19.5037 4.92486C19.8178 4.61073 19.7954 4.09653 19.4598 3.80542C17.4071 2.02458 14.7362 0.947449 11.833 0.947449C7.52592 0.947449 3.76059 3.29331 1.75061 6.77691L5.70031 9.05347C6.92814 6.9362 9.21426 5.5054 11.833 5.5054Z" fill="#FF4B26"/>
<path d="M16.3342 7.12153C16.6365 7.3705 17.0758 7.35253 17.3527 7.07566L19.5035 4.92486C19.8176 4.61073 19.7952 4.09653 19.4597 3.80542C17.4069 2.02453 14.736 0.947449 11.8328 0.947449V5.5054C13.5404 5.5054 15.109 6.11219 16.3342 7.12153Z" fill="#D93F21"/>
</g>
<defs>
<clipPath id="clip0_10_89">
<rect width="23.2962" height="23.2962" fill="white" transform="translate(0.1847 0.947449)"/>
</clipPath>
</defs>
</svg>
